<svg id="Groupe_10" data-name="Groupe 10" xmlns="http://www.w3.org/2000/svg" xmlns:xlink="http://www.w3.org/1999/xlink" width="164.732" height="174.168" viewBox="0 0 164.732 174.168">
  <defs>
    <clipPath id="clip-path">
      <rect id="Rectangle_41" data-name="Rectangle 41" width="164.732" height="174.168" fill="none"/>
    </clipPath>
  </defs>
  <g id="Groupe_9" data-name="Groupe 9" clip-path="url(#clip-path)">
    <path id="Tracé_2" data-name="Tracé 2" d="M114.3,55.419,102.294,68.31c16.349,19.511,12.975,48-5.775,63.761a45.2,45.2,0,1,1,1.9-67.887l12.076-13c-2.983-2.192-6.281-5.084-10-7.263C79.832,31.789,58.771,31.3,37.457,42.267c-.372.191-.726.421-1.1.594-1.519.693-2.874.309-3.5-1.044a2.27,2.27,0,0,1,1.189-3.3c4.335-1.985,8.576-4.351,13.11-5.7,24.789-7.356,46.956-2.3,66.411,14.739.265.232.527.467.913.808,3.712-3.638,7.4-7.206,11.006-10.852a2.654,2.654,0,0,0,.371-1.822c-.367-5.618-.75-11.235-1.216-16.846a4.042,4.042,0,0,1,1.268-3.53c4.7-4.611,9.352-9.27,14.007-13.927.885-.885,1.945-1.853,3.1-1.151A4.7,4.7,0,0,1,144.866,3c1.058,4.727,1.975,9.489,2.805,14.263a1.894,1.894,0,0,0,1.79,1.782c4.215.843,8.42,1.748,12.633,2.6,1.235.25,2.571.63,2.634,2a4.419,4.419,0,0,1-1.163,2.942q-6.747,6.964-13.733,13.692a4.811,4.811,0,0,1-3.153,1.161c-5.2-.14-10.389-.549-15.587-.7a4.16,4.16,0,0,0-2.765,1.1c-3.379,3.385-6.626,6.906-10.016,10.481,11.56,13.435,17.592,29.344,16.9,47.589-.691,18.265-7.891,33.688-20.87,46.626.265.432.525.881.808,1.315,2.783,4.257,5.579,8.506,8.354,12.77,1.4,2.16,1.183,3.268-.955,4.59q-6.71,4.151-13.455,8.246c-1.9,1.151-2.939.922-4.248-.913-2.885-4.043-5.773-8.086-8.592-12.175a1.481,1.481,0,0,0-2.179-.616c-17.788,7.361-35.576,7.247-53.34-.122-.219-.091-.442-.168-.669-.243a1.953,1.953,0,0,0-.395.018c-2.3,3.24-4.687,6.6-7.072,9.951-.866,1.22-1.707,2.459-2.607,3.654a2.414,2.414,0,0,1-3.477.709q-7.209-4.366-14.365-8.819c-1.58-.988-1.749-2.29-.628-4.018,2.734-4.218,5.5-8.414,8.253-12.62.356-.544.7-1.094,1.081-1.687-1.629-1.783-3.248-3.453-4.752-5.223A67.34,67.34,0,0,1,.013,101.81c-.132-1.746.755-2.985,2.223-3.139,1.49-.157,2.568.952,2.722,2.861,1.24,15.449,7.111,28.838,17.963,39.909a62.776,62.776,0,0,0,93.158-83.972c-.517-.635-1.073-1.239-1.779-2.049M85.918,84.04a22.622,22.622,0,1,1-36.007-.773c6.934-8.8,20.865-12.2,32.413-3.257L94.152,67.367C81.583,54.851,56.188,51.909,38.906,69.148c-16.056,16.016-15.14,43.145,2.109,58.391a40.176,40.176,0,0,0,58.4-5.62c13.812-18.1,8.386-40.676-1.61-50.545L85.918,84.04m-7.794-.65C73.883,79.183,63.045,77.3,55.4,84.618a17.64,17.64,0,0,0,24.124,25.741c7.366-6.809,6.918-17.57,1.945-23.451-2.5,2.723-4.962,5.408-7.43,8.084-.405.439-.842.85-1.277,1.26-1.4,1.318-2.869,1.423-3.935.292-1.038-1.1-.885-2.421.416-3.79q4.447-4.678,8.881-9.365m56.35-47.537c4.219.218,8.017.437,11.817.577.381.014.842-.389,1.161-.7q4.594-4.535,9.143-9.116a5.2,5.2,0,0,0,.564-.883c-3.65-.767-7.134-1.6-10.656-2.2a3.572,3.572,0,0,1-3.318-3.342c-.7-4.1-1.56-8.176-2.356-12.267-.241.049-.393.032-.462.1-3.4,3.357-6.817,6.705-10.17,10.112a2.327,2.327,0,0,0-.467,1.6c.166,2.986.413,5.967.638,8.949.086,1.151.187,2.3.28,3.453l.608.362c1.474-1.642,2.9-3.331,4.434-4.909,1.29-1.325,2.726-1.4,3.794-.378,1.107,1.058.988,2.555-.344,3.924-1.411,1.45-2.844,2.878-4.664,4.715M24.589,149.994c-2.571,3.926-5.14,7.849-7.813,11.929l10.467,6.4c2.734-3.865,5.341-7.55,7.921-11.2l-10.575-7.133m75.434,7.144,7.952,11.207,10.445-6.429-7.8-11.9-10.6,7.12" transform="translate(0 0)" fill="#f5db49"/>
    <path id="Tracé_3" data-name="Tracé 3" d="M7.335,84.976c2.039,0,3.251,1.464,2.775,3.082-.773,2.632-1.671,5.232-2.63,7.8a2.2,2.2,0,0,1-2.76,1.429,2.135,2.135,0,0,1-1.843-2.645,86.724,86.724,0,0,1,2.87-8.454c.245-.626,1.234-.959,1.589-1.215" transform="translate(-0.492 -14.985)" fill="#f5db49"/>
    <path id="Tracé_4" data-name="Tracé 4" d="M19.465,70.129c-2.172.015-3.495-2.133-2.35-3.7a58.436,58.436,0,0,1,5.248-6.1,2.187,2.187,0,0,1,3.234.095,2.214,2.214,0,0,1,.261,3.229c-1.623,1.989-3.327,3.915-5.065,5.8a3.784,3.784,0,0,1-1.329.676" transform="translate(-2.944 -10.52)" fill="#f5db49"/>
  </g>
</svg>
