<svg id="Groupe_14" data-name="Groupe 14" xmlns="http://www.w3.org/2000/svg" xmlns:xlink="http://www.w3.org/1999/xlink" width="155.562" height="155.272" viewBox="0 0 155.562 155.272">
  <defs>
    <clipPath id="clip-path">
      <rect id="Rectangle_43" data-name="Rectangle 43" width="155.562" height="155.272" fill="none"/>
    </clipPath>
  </defs>
  <g id="Groupe_13" data-name="Groupe 13" clip-path="url(#clip-path)">
    <path id="Tracé_15" data-name="Tracé 15" d="M28.791,70.015c-.887-4.623-2.188-9-2.5-13.457-1.523-21.469,7.1-37.968,25.3-49.364A48.208,48.208,0,0,1,77.453.052c5.986-.02,12-.209,17.955.286a51.515,51.515,0,0,1,45.05,36.9,50.713,50.713,0,0,1,.991,24.91,2.015,2.015,0,0,0,.9,2.4c6.318,4.728,10.994,10.616,12.615,18.523a28.951,28.951,0,0,1,.51,5.29c.072,4.2-.127,8.409.052,12.6.474,11.068-4.458,19.371-13.052,25.8-8.077,6.046-17.337,8.981-27.283,9.987a63.574,63.574,0,0,1-24.18-2.21,1.634,1.634,0,0,0-1.444.368c-6.015,9.5-14.991,14.908-25.514,17.817-15.916,4.4-31.431,3.24-46.1-4.708-7.184-3.892-13.065-9.273-15.99-17.111a32.1,32.1,0,0,1-1.834-9.424c-.29-5.533.009-11.094-.1-16.64C-.178,94.278,4.293,85.943,12.11,79.165a47.5,47.5,0,0,1,16.681-9.149M77.866,5.2a46.543,46.543,0,1,0,46.543,46.672A46.662,46.662,0,0,0,77.866,5.2M41,88.259c-1.269-1.462-2.357-2.787-3.541-4.018a1.59,1.59,0,0,0-1.279-.187A31.463,31.463,0,0,0,21,91.9c-4.087,3.99-6.369,8.726-5.025,14.552a43.924,43.924,0,0,0,2.353,6.042l-3.856,2.743a10.251,10.251,0,0,1-.749-.94c-4.2-6.828-4.55-13.8-.53-20.794,3.268-5.686,8.328-9.373,14.231-11.974,2.053-.9,4.2-1.6,6.364-2.412l-2.513-4.452c-7.895,2.477-14.841,6.34-20.058,12.793-5.755,7.119-7.61,15.115-4.6,23.918A27.717,27.717,0,0,0,17.813,125.64c16.138,10.715,33.225,11.59,50.818,4.056a32.974,32.974,0,0,0,16.721-15.1,23.2,23.2,0,0,0,2.756-11.165H72.717c-1.175,7.075-7.856,13.305-15.025,13.873l-1.311-4.676a11.117,11.117,0,0,0,1.563-.569,56.835,56.835,0,0,0,6.948-3.991c1.142-.856,1.807-2.48,2.408-3.877.444-1.031.079-1.815-1.336-2.131a46.654,46.654,0,0,1-17.194-7.566A7.141,7.141,0,0,0,43.5,93.231,30.3,30.3,0,0,0,30,97.436l-2.867-4.216c4.231-2.911,8.9-4.106,13.871-4.962m98.617-19.214c-.482,1.164-.84,2.231-1.356,3.214a1.7,1.7,0,0,0,.45,2.431c3.87,3.555,6.419,7.842,6.407,13.255-.014,5.932-2.879,10.542-7.355,14.114-9.734,7.769-21.146,9.744-33.2,8.946-3.733-.247-7.427-1.093-11.137-1.665v5a58.212,58.212,0,0,0,32.309-.446c7.189-2.183,13.662-5.626,18.669-11.351,10.389-11.88,6.023-25.538-4.783-33.5m-4.557,9.469A51.712,51.712,0,0,1,117.488,96a53.968,53.968,0,0,1-23.733,7.523,2.615,2.615,0,0,0,.912.478,49.271,49.271,0,0,0,30.379-.658,26.381,26.381,0,0,0,11.709-7.508c4.787-5.542,4.126-12.716-1.7-17.32M92.324,129.792l13.858,2.343V121.722l-12.611-1.8c-.392,3.106-.793,6.279-1.247,9.875M49.375,150.082l10.175-1.341V138.42l-10.175,1.329Zm-5.365-10.328-10.185-1.339v10.335l10.185,1.328Zm77.678-9.1V120.406l-10.108,1.241V131.98l10.108-1.331m-103.5,1.738c0,3.086-.015,6.136.022,9.186a1.194,1.194,0,0,0,.488.9c3.174,1.644,6.373,3.24,9.8,4.968V137.031l-10.313-4.643m46.681,15.071c3.411-1.717,6.518-3.263,9.6-4.857a1.366,1.366,0,0,0,.682-.941c.051-3.084.031-6.169.031-9.275l-10.311,4.645Zm72.5-32.565c-3.336,1.318-6.566,2.578-9.776,3.887a1.107,1.107,0,0,0-.557.824c-.04,3.085-.025,6.171-.025,9.777,3.457-1.742,6.567-3.286,9.643-4.895a1.51,1.51,0,0,0,.684-1.1c.058-2.831.031-5.663.031-8.5m.159-65.806c-.607-3.231-1.145-6.236-1.767-9.225-.082-.394-.588-.983-.917-1-2.247-.088-4.5-.046-6.714-.046.537,3.5,1.054,6.877,1.574,10.267Zm-9.388,15.586c2.2,0,4.354.04,6.5-.038a1.427,1.427,0,0,0,1.071-.813c.649-3.078,1.2-6.177,1.808-9.409h-7.828c-.517,3.413-1.022,6.751-1.553,10.26m-6.7,15.383c5.733.784,6.32.51,9.28-4.39.25-.413.512-.821.73-1.251.737-1.45,1.458-2.909,2.287-4.568-2.462,0-4.557-.026-6.65.026a1.326,1.326,0,0,0-.982.578c-1.591,3.194-3.127,6.416-4.665,9.6M133.66,33.642a43.565,43.565,0,0,0-5.809-9.99.993.993,0,0,0-.683-.33c-1.954-.026-3.909-.015-5.806-.015,1.609,3.321,3.131,6.5,4.7,9.652a1.325,1.325,0,0,0,.928.653c2.135.058,4.273.03,6.668.03M5.314,120.82c-.5,5.742,3.618,14.922,7.689,16.854,0-2.771.027-5.515-.026-8.257a2.231,2.231,0,0,0-.582-1.37c-2.337-2.439-4.723-4.831-7.081-7.226m75.053,17.057c5.178-4.156,8.628-12.639,7.591-16.951-2.3,2.325-4.726,4.755-7.115,7.218a1.776,1.776,0,0,0-.456,1.112c-.038,2.8-.021,5.593-.021,8.62m62.184-18.165c4.282-2.97,8.294-11.456,7.581-15.52-2.335,2.192-4.76,4.458-7.164,6.747a1.294,1.294,0,0,0-.4.817c-.03,2.617-.018,5.233-.018,7.955M104.88,7.5c2.2,1.655,4.341,3.107,6.289,4.785s3.7,3.593,5.55,5.393c.183.178.429.411.649.415,1.728.034,3.457.019,5.428.019A44.422,44.422,0,0,0,104.88,7.5m18.046,77.863c-1.766,0-3.06.068-4.344-.021a2.805,2.805,0,0,0-2.483,1.1,39.917,39.917,0,0,1-4.01,3.961c-2.286,1.914-4.691,3.686-7.256,5.683a47.131,47.131,0,0,0,18.093-10.725" transform="translate(0 0)" fill="#f5db49"/>
    <path id="Tracé_16" data-name="Tracé 16" d="M15.659,31.057a2.477,2.477,0,0,1-2.6-2.522A10.518,10.518,0,0,0,2.661,18.116,2.56,2.56,0,1,1,2.644,13,10.528,10.528,0,0,0,13.051,2.589,2.478,2.478,0,0,1,15.642.053a2.506,2.506,0,0,1,2.536,2.6,10.51,10.51,0,0,0,10.3,10.336,2.538,2.538,0,0,1,2.663,2.638A2.623,2.623,0,0,1,28.5,18.138q-9.386.856-10.3,10.3a2.621,2.621,0,0,1-2.54,2.618M12.085,15.464l3.441,3.61,3.607-3.424-3.5-3.695-3.552,3.509" transform="translate(-0.018 -0.012)" fill="#f5db49"/>
    <path id="Tracé_17" data-name="Tracé 17" d="M122.708,188.079c.341-1.82.625-3.336.947-5.053,14.878,2.417,29.129.866,42.681-6.281.836,1.466,1.647,2.889,2.553,4.476-14.6,7.754-29.929,9.535-46.18,6.858" transform="translate(-27.264 -39.271)" fill="#f5db49"/>
    <path id="Tracé_18" data-name="Tracé 18" d="M23.55,79.924l-4.561,1.185c-1.778-3.634-2.955-17.188-1.836-21.431l4.977.362c0,3.393-.18,6.663.051,9.906s.872,6.481,1.37,9.979" transform="translate(-3.714 -13.26)" fill="#f5db49"/>
    <path id="Tracé_19" data-name="Tracé 19" d="M189.528,167.452l3.8,3.524-5.526,4.906-3.1-4.132,4.832-4.3" transform="translate(-41.038 -37.206)" fill="#f5db49"/>
    <path id="Tracé_20" data-name="Tracé 20" d="M17.86,51.125c.381-1.815.738-3.516,1.128-5.375l4.991,1.277c-.345,1.655-.667,3.2-1.026,4.92l-5.093-.821" transform="translate(-3.968 -10.165)" fill="#f5db49"/>
    <path id="Tracé_21" data-name="Tracé 21" d="M118.495,58.483c0,4.038-.04,8.078.019,12.115a3.425,3.425,0,0,1-1.961,3.386Q105.5,80.05,94.509,86.212a3.51,3.51,0,0,1-3.787.018q-11.064-6.2-22.185-12.3a3.34,3.34,0,0,1-1.877-3.269q.058-12.2,0-24.393a3.431,3.431,0,0,1,1.969-3.373q11.051-6.061,22.041-12.231A3.634,3.634,0,0,1,94.6,30.7q10.923,6.126,21.9,12.154a3.522,3.522,0,0,1,2.015,3.516c-.065,4.038-.021,8.077-.021,12.115m-5.182.049c0-3.393-.037-6.786.023-10.178a1.935,1.935,0,0,0-1.181-2q-9.221-5.032-18.37-10.194a2.1,2.1,0,0,0-2.358-.009q-9.154,5.151-18.37,10.2a1.947,1.947,0,0,0-1.223,1.973q.072,10.1,0,20.194a1.946,1.946,0,0,0,1.189,1.993Q82.245,75.54,91.4,80.7a2.1,2.1,0,0,0,2.358.03q9.151-5.158,18.372-10.189a2.039,2.039,0,0,0,1.209-2.151c-.059-3.284-.022-6.569-.022-9.855" transform="translate(-14.81 -6.688)" fill="#f5db49"/>
    <path id="Tracé_22" data-name="Tracé 22" d="M108.785,18.961l-2.508,4.334c-9.173-4.955-18.7-6.187-28.643-3.2A35.7,35.7,0,0,0,58.568,33.791a36.432,36.432,0,0,0,4.848,47.565l-3.341,3.568C46.41,73.144,41.052,49.409,54.41,30.71s37.942-21.743,54.375-11.75" transform="translate(-10.376 -2.967)" fill="#f5db49"/>
    <path id="Tracé_23" data-name="Tracé 23" d="M75.21,95.01c.8-1.513,1.551-2.92,2.346-4.414,8.96,4.42,18.128,5.411,27.59,2.516A36.074,36.074,0,0,0,123.5,80.252a36.561,36.561,0,0,0-2.295-46.409l3.492-3.271c10.8,10.157,16.7,32.386,4.228,50.952C116.014,100.752,91.6,104.229,75.21,95.01" transform="translate(-16.711 -6.793)" fill="#f5db49"/>
    <path id="Tracé_24" data-name="Tracé 24" d="M31.229,155.178l2.265-4c4,1.238,7.774,2.75,11.691,3.547a41.9,41.9,0,0,0,26.086-2.839A24.5,24.5,0,0,0,83.1,141.495l4.574,2.331a25.978,25.978,0,0,1-9.443,10.052c-8.784,5.592-18.472,7.452-28.76,6.683A44.953,44.953,0,0,1,33.9,156.609c-.684-.315-1.357-.655-2.029-1a6.975,6.975,0,0,1-.643-.436" transform="translate(-6.939 -31.439)" fill="#f5db49"/>
    <path id="Tracé_25" data-name="Tracé 25" d="M55.081,142.357l.246,5.064a39.337,39.337,0,0,1-12.185-.922,26.408,26.408,0,0,1-11.866-5.594c-3.418-2.989-5.33-6.6-4.238-11.3a7.869,7.869,0,0,1,.392-.994l4.656,1.686c-.817,3.95,1.5,6.214,4.394,8.039,4.455,2.81,9.466,3.762,14.643,4.013,1.234.059,2.473.009,3.959.009" transform="translate(-5.939 -28.576)" fill="#f5db49"/>
    <path id="Tracé_26" data-name="Tracé 26" d="M85.183,52.086c3.565-1.778,6.9-3.53,10.326-5.08a3.439,3.439,0,0,1,2.71.172q6.325,3.585,12.471,7.475a3.577,3.577,0,0,1,1.483,2.441c.17,3.324.07,6.661.07,10.108h-5.176c0-2.516.06-5.03-.043-7.537A2.486,2.486,0,0,0,106.1,57.9c-2.812-1.8-5.683-3.506-8.589-5.149a2.339,2.339,0,0,0-1.854-.065c-2.685,1.236-5.313,2.592-8.129,3.99l-2.341-4.593" transform="translate(-18.927 -10.399)" fill="#f5db49"/>
  </g>
</svg>
