<svg id="Groupe_12" data-name="Groupe 12" xmlns="http://www.w3.org/2000/svg" xmlns:xlink="http://www.w3.org/1999/xlink" width="155.562" height="162.86" viewBox="0 0 155.562 162.86">
  <defs>
    <clipPath id="clip-path">
      <rect id="Rectangle_42" data-name="Rectangle 42" width="155.562" height="162.86" fill="none"/>
    </clipPath>
  </defs>
  <g id="Groupe_11" data-name="Groupe 11" clip-path="url(#clip-path)">
    <path id="Tracé_5" data-name="Tracé 5" d="M145.841,0c2.615,1.114,3.547,3.093,3.527,5.914-.088,11.981-.037,23.962-.04,35.943a7.613,7.613,0,0,1-.061,1.584,2.362,2.362,0,0,1-4.682-.188,10.943,10.943,0,0,1-.026-1.43q0-17.574,0-35.148V4.866H11.1v74.09h1.672c1.091-2.757,2.18-5.433,3.192-8.137a5.1,5.1,0,0,0,.114-1.731q.007-27.753,0-55.506c0-3.087.625-3.709,3.721-3.709,6.2,0,12.405-.012,18.608.007,1.931.006,3.1,1.2,2.766,2.813-.311,1.511-1.4,1.966-2.837,1.959-5.195-.022-10.391-.009-15.587-.009H20.951V64.258c1.561-1.062,3.095-2.054,4.555-3.143a1.755,1.755,0,0,0,.434-1.231c.047-1.8-.005-3.605.027-5.407.057-3.117,1.836-4.96,4.941-5.018q4.849-.09,9.7,0c3.178.055,5.2,1.948,4.917,5.129-.282,3.111.565,4.762,3.677,5.883,3.838,1.382,6.794,4.265,9.183,7.6a2.259,2.259,0,0,0,2.092,1.055c11.557-.03,23.114,0,34.671-.062a2.772,2.772,0,0,0,1.908-.975,24.965,24.965,0,0,1,11.673-8.711,1.557,1.557,0,0,0,1.23-1.85,29.494,29.494,0,0,1,0-3.338,4.536,4.536,0,0,1,4.589-4.7q5.243-.154,10.494.005a4.529,4.529,0,0,1,4.531,4.756c.046,1.854-.059,3.715.054,5.564a2.513,2.513,0,0,0,.9,1.587c1.262,1.014,2.631,1.895,4.07,2.907V14.643h-83.8c-.53,0-1.063.029-1.59-.016a2.37,2.37,0,0,1,.016-4.738c.421-.041.848-.016,1.272-.016h85.247c3.092,0,3.718.625,3.718,3.713q0,27.753.03,55.506a9.238,9.238,0,0,0,.66,2.866c.786,2.3,1.647,4.565,2.536,7h1.875V77.289q0-11.531.012-23.061c0-.619-.04-1.462.318-1.808.616-.6,1.609-1.314,2.3-1.187.781.144,1.5,1.09,2.05,1.829.26.347.091,1.027.091,1.556q0,11.531,0,23.061c0,4.421-1.161,5.734-5.768,6.295.488,2.262.962,4.511,1.458,6.755,3.369,15.247,6.864,30.468,10.074,45.748a21.967,21.967,0,0,1-18.223,26.1,6.112,6.112,0,0,0-.89.282h-5.09a2.5,2.5,0,0,0-.565-.25c-9.218-1.556-15.258-6.805-18.208-15.651-1.054-3.159-2.13-6.31-3.143-9.482a1.545,1.545,0,0,0-1.6-1.33,8.527,8.527,0,0,1-7.7-5.485,1.7,1.7,0,0,0-1.874-1.2q-20.018.047-40.037-.009a1.814,1.814,0,0,0-1.946,1.333,8.55,8.55,0,0,1-7.63,5.356,1.553,1.553,0,0,0-1.614,1.317c-1.134,3.521-2.271,7.043-3.511,10.528a21.056,21.056,0,0,1-10.934,12.422,57.5,57.5,0,0,1-7.479,2.447H19.56c-1.024-.24-2.053-.457-3.068-.723A22.106,22.106,0,0,1,.427,136.468c.95-4.774,2.064-9.517,3.135-14.267.424-1.883,1.444-2.66,2.93-2.353s2.084,1.5,1.7,3.347c-1.11,5.281-2.548,10.519-3.26,15.854a17.035,17.035,0,0,0,12.6,18.412,17.172,17.172,0,0,0,20.357-9.5c1.837-4.255,3.093-8.76,4.607-13.141-3.506-2.722-4.889-6.093-3.69-10.307a8.879,8.879,0,0,1,7.815-6.489,9,9,0,0,1,9.208,5.43,1.785,1.785,0,0,0,1.968,1.29q20.038-.059,40.077-.012a1.573,1.573,0,0,0,1.772-1.094,9.058,9.058,0,0,1,16.984.538,8.86,8.86,0,0,1-2.844,10.019c-.2.169-.406.329-.751.608,1.564,4.474,2.842,9.086,4.761,13.413,3.554,8.015,12.853,11.768,21.25,8.939A17.323,17.323,0,0,0,150.409,137.2c-4.266-19.493-8.535-38.986-12.961-58.443-1.9-8.337-7.175-13.814-15.552-15.643-8.26-1.8-15.3.74-20.6,7.449a6.263,6.263,0,0,0-1.073,3.159c-.176,1.785,0,3.6-.067,5.4a4.5,4.5,0,0,1-4.743,4.693q-17.573.063-35.146,0a4.526,4.526,0,0,1-4.789-4.806,46.208,46.208,0,0,1,.02-4.769,5.267,5.267,0,0,0-1.437-4.031c-5.383-6.377-12.264-8.859-20.333-7.127-7.886,1.693-13.285,6.625-15.244,14.529-2.723,10.991-5.03,22.086-7.516,33.136-.1.464-.189.935-.32,1.392A2.386,2.386,0,1,1,6.023,111c.944-4.344,1.922-8.681,2.887-13.021S10.843,89.3,11.8,84.959c.065-.3.08-.6.132-1.018-.551-.052-1.012-.085-1.47-.142a4.63,4.63,0,0,1-4.242-4.568c-.025-.476-.01-.954-.01-1.431,0-23.908.028-47.816-.038-71.723C6.167,3.219,7,1.143,9.7,0ZM60.3,78.973h35v-4.98h-35ZM47.5,122.777a4.323,4.323,0,1,0,.016,8.646,4.323,4.323,0,1,0-.016-8.646m56.172,4.3a4.358,4.358,0,0,0,8.715.062,4.357,4.357,0,0,0-8.715-.062M30.787,58.524l9.965-.915V54.333H30.787ZM114.8,57.6l9.922.916V54.311H114.8Z" transform="translate(0)" fill="#f5db49"/>
    <path id="Tracé_6" data-name="Tracé 6" d="M36.979,126.219c-3.216.132-6.29-.03-8.187-2.757a10.212,10.212,0,0,1-1.633-4.655,5.738,5.738,0,0,1,3.072-5.86c1.944-.99,4.236-1.3,6.374-1.9l.376.372c0-.821-.017-1.642,0-2.463a7.227,7.227,0,0,1,7.075-7.29,7.31,7.31,0,0,1,7.542,7.015c.058.887.009,1.78.009,2.837,3.274-.1,6.47.02,8.341,2.975a9.351,9.351,0,0,1,1.469,4.713c.006,4.39-2.847,6.383-9.8,7.136,0,.744.019,1.518,0,2.29a7.429,7.429,0,0,1-7.31,7.468,7.344,7.344,0,0,1-7.33-7.559c-.012-.681,0-1.363,0-2.319m7.31,5.095a2.63,2.63,0,0,0,2.547-2.712c.061-1.479,0-2.963.026-4.444.036-1.868.842-2.673,2.729-2.715,1.481-.033,2.966.037,4.444-.03a2.613,2.613,0,0,0,2.694-2.559,2.541,2.541,0,0,0-2.7-2.513c-1.48-.056-2.964.013-4.444-.033-1.883-.059-2.685-.883-2.72-2.754-.027-1.481.038-2.966-.025-4.444a2.522,2.522,0,0,0-2.561-2.662,2.475,2.475,0,0,0-2.514,2.668c-.043,1.481.022,2.964-.025,4.445-.057,1.836-.925,2.692-2.773,2.747-1.481.044-2.965-.023-4.445.034a2.467,2.467,0,0,0-2.648,2.533,2.5,2.5,0,0,0,2.673,2.541c1.427.064,2.858,0,4.287.024,2.057.035,2.869.841,2.912,2.9.031,1.481-.03,2.965.031,4.445a2.506,2.506,0,0,0,2.515,2.529" transform="translate(-6.027 -22.588)" fill="#f5db49"/>
    <path id="Tracé_7" data-name="Tracé 7" d="M139.219,116.906a7.29,7.29,0,0,1,7.288,7.245,7.315,7.315,0,1,1-14.631.091,7.257,7.257,0,0,1,7.343-7.336m-.082,4.779a2.484,2.484,0,0,0-2.484,2.52,2.587,2.587,0,0,0,2.5,2.546,2.618,2.618,0,0,0,2.575-2.642,2.515,2.515,0,0,0-2.592-2.424" transform="translate(-29.302 -25.975)" fill="#f5db49"/>
    <path id="Tracé_8" data-name="Tracé 8" d="M158.26,112.429a7.249,7.249,0,0,1-7.315-7.357,7.312,7.312,0,1,1,7.315,7.357m2.518-7.247a2.6,2.6,0,0,0-2.445-2.6,2.546,2.546,0,0,0-2.6,2.578,2.478,2.478,0,0,0,2.5,2.49,2.517,2.517,0,0,0,2.545-2.468" transform="translate(-33.538 -21.729)" fill="#f5db49"/>
    <path id="Tracé_9" data-name="Tracé 9" d="M97.767,119.091c-1.535,0-3.072.043-4.6-.013a2.363,2.363,0,0,1-2.571-2.421,2.326,2.326,0,0,1,2.518-2.3q4.763-.084,9.527,0a2.346,2.346,0,0,1,2.572,2.409c-.033,1.375-1.025,2.274-2.677,2.32-1.587.045-3.175.01-4.763.009" transform="translate(-20.128 -25.4)" fill="#f5db49"/>
    <path id="Tracé_10" data-name="Tracé 10" d="M84.15,150.831c-1.319,0-2.64.04-3.957-.012a2.17,2.17,0,0,1-2.268-2.172,2.069,2.069,0,0,1,1.944-2.451,83.029,83.029,0,0,1,8.533,0,2.066,2.066,0,0,1,1.948,2.443,2.143,2.143,0,0,1-2.243,2.183c-1.316.06-2.638.013-3.957.013" transform="translate(-17.312 -32.459)" fill="#f5db49"/>
    <path id="Tracé_11" data-name="Tracé 11" d="M112.235,150.831c-1.266,0-2.534.037-3.8-.012a2.243,2.243,0,0,1-2.382-2.222,2.21,2.21,0,0,1,2.147-2.46c2.686-.11,5.382-.107,8.068-.015a2.267,2.267,0,0,1,2.244,2.395,2.324,2.324,0,0,1-2.48,2.307c-1.265.042-2.533.009-3.8.007" transform="translate(-23.564 -32.452)" fill="#f5db49"/>
    <path id="Tracé_12" data-name="Tracé 12" d="M76.562,46.023c0-3.528-.007-7.057.006-10.585a7.554,7.554,0,0,1,.159-1.889A2.13,2.13,0,0,1,79.1,31.876,2.159,2.159,0,0,1,81.23,33.67a3.963,3.963,0,0,1,.1.945c.005,6.142.037,12.284-.035,18.425a4.044,4.044,0,0,1-.88,2.425c-1.111,1.282-2.97.883-4.137-.788-2.515-3.6-4.993-7.227-7.49-10.84a4.079,4.079,0,0,0-1.315-1.3q0,3.36,0,6.721c0,1.43.023,2.859-.006,4.288-.038,1.848-.962,2.89-2.473,2.851-1.444-.037-2.281-1.036-2.285-2.833-.014-6.248.012-12.5-.019-18.744-.007-1.359.343-2.445,1.737-2.848,1.314-.38,2.192.3,2.917,1.363,2.745,4.021,5.525,8.018,8.295,12.021.176.254.376.491.565.735l.365-.072" transform="translate(-13.928 -7.081)" fill="#f5db49"/>
    <path id="Tracé_13" data-name="Tracé 13" d="M99.242,36.665v4.882c1.553,0,3.06-.019,4.567.005a2.379,2.379,0,0,1,2.613,1.852,2.257,2.257,0,0,1-2.156,2.866,27.687,27.687,0,0,1-3.655.026c-1.085-.062-1.514.277-1.468,1.421.081,1.959.045,3.923.012,5.883-.03,1.717-.991,2.789-2.395,2.763a2.423,2.423,0,0,1-2.347-2.677q-.051-9.543,0-19.085c.012-1.844.933-2.676,2.8-2.7q3.577-.042,7.157,0c1.727.019,2.766.953,2.756,2.4s-1.049,2.34-2.786,2.36c-1.64.02-3.281,0-5.1,0" transform="translate(-20.972 -7.084)" fill="#f5db49"/>
    <path id="Tracé_14" data-name="Tracé 14" d="M127.331,36.3V51.962c0,.53.017,1.06-.006,1.589a2.429,2.429,0,0,1-2.4,2.606,2.391,2.391,0,0,1-2.35-2.646c-.025-4.822-.01-9.643-.01-14.466V36.3c-1.041,0-1.976.027-2.908-.006a2.325,2.325,0,0,1-2.515-2.288,2.293,2.293,0,0,1,2.376-2.442c3.655-.065,7.313-.069,10.967.006a2.36,2.36,0,1,1-.124,4.717c-.941.041-1.885.008-3.026.008" transform="translate(-26.026 -7.003)" fill="#f5db49"/>
  </g>
</svg>
