<svg xmlns="http://www.w3.org/2000/svg" xmlns:xlink="http://www.w3.org/1999/xlink" width="1440" height="736.972" viewBox="0 0 1440 736.972">
  <defs>
    <linearGradient id="linear-gradient" y1="0.5" x2="1" y2="0.5" gradientUnits="objectBoundingBox">
      <stop offset="0" stop-color="#e609a8"/>
      <stop offset="0.61" stop-color="#5e2ddb"/>
    </linearGradient>
  </defs>
  <g id="Groupe_20" data-name="Groupe 20" transform="translate(0 -1454)">
    <path id="Rectangle_12370" data-name="Rectangle 12370" d="M0,0H1440V736.972H0Z" transform="translate(0 1454)" fill="url(#linear-gradient)" style="mix-blend-mode: normal;isolation: isolate"/>
    <g id="Polygon_4" data-name="Polygon 4" transform="translate(94.803 2046.223) rotate(50.665)" fill="none" style="mix-blend-mode: normal;isolation: isolate">
      <path d="M1.985,44.089A15.587,15.587,0,0,0,15.61,67.247H55.7A15.587,15.587,0,0,0,69.322,44.089L49.278,8.016a15.587,15.587,0,0,0-27.25,0Z" stroke="none"/>
      <path d="M 55.69650268554688 57.2469596862793 C 58.58036422729492 57.2469596862793 60.02480316162109 55.32107925415039 60.51198196411133 54.49306106567383 C 60.99918365478516 53.66497802734375 61.98112487792969 51.46681976318359 60.58038330078125 48.94585800170898 L 40.53702545166016 12.87347888946533 C 39.09598541259766 10.27999973297119 36.64150238037109 9.999999046325684 35.65312194824219 9.999999046325684 C 34.66472244262695 9.999999046325684 32.21024322509766 10.27999973297119 30.76918411254883 12.87349891662598 L 10.72572326660156 48.94593811035156 C 9.324983596801758 51.46680068969727 10.30690383911133 53.66492080688477 10.79408359527588 54.49295806884766 C 11.28126335144043 55.32099914550781 12.72576332092285 57.2469596862793 15.60966396331787 57.2469596862793 L 55.69650268554688 57.2469596862793 M 55.69650268554688 67.24695587158203 L 15.60966396331787 67.24695587158203 C 3.724143743515015 67.24695587158203 -3.788376331329346 54.47819900512695 1.98452365398407 44.08884048461914 L 22.02794456481934 8.0164794921875 C 27.96700096130371 -2.672161102294922 43.33922576904297 -2.672161102294922 49.27828216552734 8.0164794921875 L 69.32162475585938 44.08884048461914 C 75.09438323974609 54.47819900512695 67.58208465576172 67.24695587158203 55.69650268554688 67.24695587158203 Z" stroke="none" fill="#5e2ddb"/>
    </g>
  </g>
</svg>
